<?xml version="1.0" standalone="no"?><!DOCTYPE svg PUBLIC "-//W3C//DTD SVG 1.1//EN"
        "http://www.w3.org/Graphics/SVG/1.1/DTD/svg11.dtd">
<svg t="1605353982757" class="icon" viewBox="0 0 1024 1024" version="1.1" xmlns="http://www.w3.org/2000/svg"
     p-id="13908" width="200" height="200">
    <defs>
        <style type="text/css"></style>
    </defs>
    <path d="M297.44064 269.76a57.152 57.152 0 0 0-80.768 80.768 228.288 228.288 0 0 1 0 322.944 57.024 57.024 0 1 0 80.768 80.768 342.72 342.72 0 0 0 0-484.48z"
          fill="#999999" p-id="13909"></path>
    <path d="M440.09664 67.904a57.152 57.152 0 0 0-80.768 80.768 513.728 513.728 0 0 1 0 726.72 57.152 57.152 0 0 0 80.768 80.768 628.032 628.032 0 0 0 0-888.256z"
          fill="#999999" p-id="13910"></path>
    <path d="M94.04864 512m-94.016 0a94.016 94.016 0 1 0 188.032 0 94.016 94.016 0 1 0-188.032 0Z" fill="#999999"
          p-id="13911"></path>
</svg>